#!OML:ASF F:\VICON\USERDATA\INSTALL\rory3\rory3.ASF
:FULLY-SPECIFIED
:DEGREES
483
root 4.63804 17.5724 2.66456 6.23192 -8.33763 -7.43822
lowerback 10.0033 -1.04381 3.1182
upperback 4.01066 -1.07625 1.33843
thorax -1.46794 -0.527205 -0.249407
lowerneck -12.7321 0.312172 -1.30019
upperneck 36.6067 0.596207 0.226976
head 14.7982 0.0375475 0.40319
rclavicle -1.39149e-014 -3.97569e-015
rhumerus -43.888 2.13255 -30.6538
rradius 49.2707
rwrist -0.815819
rhand -12.8949 -43.4862
rfingers 7.12502
rthumb 13.1945 -73.0487
lclavicle -1.39149e-014 -3.97569e-015
lhumerus -33.9755 5.04751 24.7042
lradius 27.2223
lwrist 7.88583
lhand -26.9303 -35.9957
lfingers 7.12502
lthumb -0.352744 -6.01627
rfemur -101.484 0.817921 27.7236
rtibia 113.12
rfoot 51.1522 6.68372
rtoes -4.56427
lfemur -15.7617 2.77829 -21.419
ltibia 25.3628
lfoot -12.7958 3.29333
ltoes 14.3532
484
root 4.63888 17.5735 2.66508 6.14656 -8.31061 -7.51195
lowerback 10.0248 -1.05483 3.26942
upperback 4.06895 -1.07799 1.32837
thorax -1.42168 -0.525891 -0.344611
lowerneck -12.7029 0.258277 -1.31122
upperneck 36.5232 0.494581 0.291537
head 14.7523 0.00250919 0.415422
rclavicle -1.59028e-014 -2.78299e-014
rhumerus -43.8497 1.99974 -30.4456
rradius 49.0592
rwrist -0.761029
rhand -12.9553 -43.3792
rfingers 7.12502
rthumb 13.1363 -72.9454
lclavicle -1.59028e-014 -2.78299e-014
lhumerus -33.8776 5.62081 24.3292
lradius 27.3805
lwrist 7.84763
lhand -26.6799 -33.1771
lfingers 7.12502
lthumb -0.110894 -3.19737
rfemur -101.433 0.849889 27.8133
rtibia 112.996
rfoot 51.1179 5.84402
rtoes -3.39
lfemur -15.6179 2.7748 -21.3395
ltibia 25.3137
lfoot -12.8072 3.28286
ltoes 14.2357
485
root 4.63921 17.5701 2.67035 5.97508 -8.34041 -7.28145
lowerback 10.2243 -1.04907 3.09892
upperback 4.01552 -1.07754 1.24345
thorax -1.58546 -0.528607 -0.332917
lowerneck -12.6383 0.26719 -1.15127
upperneck 36.5874 0.511398 0.150989
head 14.7688 0.0118809 0.331264
rclavicle 1.53064e-014 -1.03368e-014
rhumerus -43.9983 2.13033 -30.2581
rradius 48.9991
rwrist -0.902074
rhand -13.0726 -42.8854
rfingers 7.12502
rthumb 13.0232 -72.4589
lclavicle 1.53064e-014 -1.03368e-014
lhumerus -33.9757 5.73242 24.0704
lradius 27.6403
lwrist 8.29351
lhand -26.5811 -31.7517
lfingers 7.12502
lthumb -0.0154669 -1.77197
rfemur -101.46 0.791302 27.6515
rtibia 112.969
rfoot 50.7272 6.16837
rtoes -3.54101
lfemur -15.3491 2.7969 -21.6021
ltibia 25.1956
lfoot -12.7994 3.27671
ltoes 14.3146
486
root 4.6353 17.565 2.67269 5.81523 -8.41698 -6.92496
lowerback 10.3391 -1.01728 2.71015
upperback 3.98523 -1.06899 1.16565
thorax -1.6751 -0.527607 -0.194039
lowerneck -12.5554 0.309542 -1.00016
upperneck 36.6599 0.605459 -0.056047
head 14.7851 0.0439502 0.233228
rclavicle -3.20043e-014 1.74931e-014
rhumerus -44.1735 2.36861 -30.0944
rradius 49.2066
rwrist -1.18134
rhand -13.2039 -43.0646
rfingers 7.12502
rthumb 12.8967 -72.6461
lclavicle -3.20043e-014 1.74931e-014
lhumerus -34.2746 5.48445 24.0248
lradius 27.5441
lwrist 8.21147
lhand -26.4622 -32.3412
lfingers 7.12502
lthumb 0.0993458 -2.36148
rfemur -101.617 0.771122 27.3857
rtibia 112.949
rfoot 50.6802 6.51877
rtoes -3.71083
lfemur -15.1195 2.84443 -21.9885
ltibia 25.0528
lfoot -12.7559 3.32835
ltoes 14.2998
487
root 4.63025 17.5624 2.67207 5.69163 -8.47635 -6.69382
lowerback 10.3861 -1.00154 2.43772
upperback 3.98582 -1.07392 1.12251
thorax -1.69685 -0.531771 -0.0844041
lowerneck -12.435 0.309031 -1.07096
upperneck 36.6583 0.607164 -0.0157882
head 14.7559 0.0401201 0.262383
rclavicle 9.14409e-015 2.3059e-014
rhumerus -44.1853 2.46362 -29.9061
rradius 49.2496
rwrist -1.1994
rhand -13.1218 -43.6147
rfingers 7.12502
rthumb 12.9758 -73.1912
lclavicle 9.14409e-015 2.3059e-014
lhumerus -34.5912 5.14237 24.0224
lradius 27.5456
lwrist 8.29351
lhand -25.9466 -32.0809
lfingers 7.12502
lthumb 0.597303 -2.10204
rfemur -101.742 0.801902 27.2474
rtibia 112.864
rfoot 51.1279 6.60496
rtoes -4.55184
lfemur -14.956 2.88283 -22.2187
ltibia 24.9344
lfoot -12.7224 3.34966
ltoes 14.2429
488
root 4.62711 17.563 2.66744 5.63988 -8.5452 -6.70866
lowerback 10.3998 -0.998331 2.43567
upperback 4.03234 -1.07112 1.10802
thorax -1.65623 -0.529822 -0.0988273
lowerneck -12.361 0.302761 -1.15944
upperneck 36.5581 0.577528 0.102371
head 14.6902 0.0319164 0.321925
rclavicle 1.63003e-014 -3.18055e-015
rhumerus -43.9971 2.29059 -29.6955
rradius 48.9654
rwrist -0.977313
rhand -12.8773 -43.8616
rfingers 7.12502
rthumb 13.2114 -73.423
lclavicle 1.63003e-014 -3.18055e-015
lhumerus -34.6723 5.22807 23.8201
lradius 28.9065
lwrist 10.1443
lhand -24.7084 -22.1469
lfingers 7.12502
lthumb 1.79322 7.8253
rfemur -101.782 0.931104 27.3288
rtibia 112.638
rfoot 50.9158 6.19132
rtoes -3.6557
lfemur -14.8856 2.98075 -22.1834
ltibia 24.8751
lfoot -12.7201 3.28911
ltoes 14.2768
489
root 4.62364 17.5645 2.66142 5.65731 -8.55179 -6.8678
lowerback 10.2965 -1.01939 2.56237
upperback 4.12815 -1.09253 1.13664
thorax -1.50219 -0.538034 -0.140619
lowerneck -12.2802 0.308046 -1.22633
upperneck 36.3481 0.563933 0.208013
head 14.5714 0.0330224 0.374471
rclavicle -2.80286e-014 -6.36111e-015
rhumerus -43.7383 1.98044 -29.4758
rradius 48.6567
rwrist -0.821088
rhand -12.9336 -43.5141
rfingers 7.12502
rthumb 13.1572 -73.079
lclavicle -2.80286e-014 -6.36111e-015
lhumerus -34.8726 5.58168 23.4746
lradius 28.0715
lwrist 9.18475
lhand -24.4531 -26.8505
lfingers 7.12502
lthumb 2.03976 3.11953
rfemur -101.839 1.05389 27.5435
rtibia 112.359
rfoot 50.9971 5.55088
rtoes -2.62747
lfemur -14.9035 3.0889 -21.9913
ltibia 24.8864
lfoot -12.7319 3.19703
ltoes 14.2087
490
root 4.6212 17.5632 2.66217 5.63729 -8.55076 -6.90984
lowerback 10.3003 -1.03343 2.59043
upperback 4.11892 -1.10777 1.14905
thorax -1.51433 -0.545652 -0.141621
lowerneck -12.1024 0.312204 -1.27809
upperneck 36.2506 0.559283 0.266263
head 14.4842 0.0324579 0.405919
rclavicle 3.18055e-015 5.56597e-015
rhumerus -43.5637 1.67745 -29.1825
rradius 48.275
rwrist -0.586916
rhand -13.2687 -42.7678
rfingers 7.12502
rthumb 12.8341 -72.3533
lclavicle 3.18055e-015 5.56597e-015
lhumerus -34.9617 5.87755 23.154
lradius 28.0148
lwrist 9.22432
lhand -23.3831 -27.0602
lfingers 7.12502
lthumb 3.0731 2.89736
rfemur -101.91 1.10559 27.6425
rtibia 112.163
rfoot 50.9662 5.48021
rtoes -2.92984
lfemur -14.8837 3.14394 -21.9377
ltibia 24.9416
lfoot -12.8016 3.1697
ltoes 14.0663
491
root 4.61887 17.5616 2.66138 5.64106 -8.5746 -6.92614
lowerback 10.3464 -1.03246 2.59052
upperback 4.07578 -1.10342 1.15696
thorax -1.58412 -0.544384 -0.132713
lowerneck -12.0037 0.321387 -1.28015
upperneck 36.291 0.575436 0.253197
head 14.4804 0.0366267 0.403121
rclavicle -7.7526e-015 -1.66979e-014
rhumerus -43.4801 1.5824 -28.9548
rradius 48.0166
rwrist -0.503275
rhand -13.4825 -42.6645
rfingers 7.12502
rthumb 12.6281 -72.2628
lclavicle -7.7526e-015 -1.66979e-014
lhumerus -34.9113 6.11673 22.9114
lradius 28.451
lwrist 9.83247
lhand -23.6624 -24.8131
lfingers 7.12502
lthumb 2.80342 5.14818
rfemur -102.014 1.18859 27.7065
rtibia 111.991
rfoot 50.6813 5.80857
rtoes -3.83176
lfemur -14.9234 3.16631 -21.9114
ltibia 25.0113
lfoot -12.8439 3.16538
ltoes 14.1167
